<svg width="500" height="500" viewBox="0 0 500 500" fill="none" xmlns="http://www.w3.org/2000/svg">
<rect width="500" height="500" fill="black"/>
<path d="M23.045 107L39.053 43.49H53.06L69.155 107H58.019L54.539 91.601H37.661L34.181 107H23.045ZM39.662 82.727H52.538L48.71 65.675C48.072 62.833 47.521 60.281 47.057 58.019C46.593 55.699 46.274 54.017 46.1 52.973C45.926 54.017 45.607 55.699 45.143 58.019C44.737 60.281 44.186 62.804 43.49 65.588L39.662 82.727ZM78.778 107V43.49H98.875C103.109 43.49 106.763 44.273 109.837 45.839C112.969 47.405 115.405 49.609 117.145 52.451C118.885 55.235 119.755 58.541 119.755 62.369C119.755 66.545 118.682 70.228 116.536 73.418C114.448 76.608 111.606 78.87 108.01 80.204L120.625 107H108.445L97.396 81.77H89.653V107H78.778ZM89.653 72.2H98.875C101.949 72.2 104.356 71.359 106.096 69.677C107.836 67.995 108.706 65.675 108.706 62.717C108.706 59.701 107.836 57.352 106.096 55.67C104.356 53.93 101.949 53.06 98.875 53.06H89.653V72.2ZM144.951 107V53.582H128.334V43.49H172.53V53.582H155.913V107H144.951ZM184.328 107V97.43H197.117V53.06H184.328V43.49H220.868V53.06H208.079V97.43H220.868V107H184.328ZM62.195 219.44C53.379 217.12 46.564 213.031 41.75 207.173C36.936 201.257 34.529 194.065 34.529 185.597V169.85C34.529 164.282 35.631 159.236 37.835 154.712C40.097 150.13 43.287 146.244 47.405 143.054C51.581 139.806 56.511 137.428 62.195 135.92V146.621C58.773 147.433 55.786 148.912 53.234 151.058C50.74 153.204 48.826 155.872 47.492 159.062C46.158 162.252 45.491 165.848 45.491 169.85V185.597C45.491 189.483 46.158 193.021 47.492 196.211C48.826 199.343 50.74 201.982 53.234 204.128C55.786 206.216 58.773 207.666 62.195 208.478V219.44ZM79.126 209V145.49H118.624V155.582H89.827V172.547H116.362V182.639H90.001V209H79.126ZM132.162 209V199.43H144.951V155.06H132.162V145.49H168.702V155.06H155.913V199.43H168.702V209H132.162ZM202.946 209.87C198.886 209.87 195.319 209.116 192.245 207.608C189.229 206.042 186.88 203.867 185.198 201.083C183.574 198.241 182.762 194.906 182.762 191.078V163.412C182.762 159.526 183.574 156.191 185.198 153.407C186.88 150.623 189.229 148.477 192.245 146.969C195.319 145.403 198.886 144.62 202.946 144.62C207.064 144.62 210.602 145.403 213.56 146.969C216.576 148.477 218.925 150.623 220.607 153.407C222.289 156.191 223.13 159.526 223.13 163.412H212.168C212.168 160.396 211.356 158.105 209.732 156.539C208.166 154.973 205.904 154.19 202.946 154.19C199.988 154.19 197.697 154.973 196.073 156.539C194.449 158.105 193.637 160.367 193.637 163.325V191.078C193.637 194.036 194.449 196.327 196.073 197.951C197.697 199.517 199.988 200.3 202.946 200.3C205.904 200.3 208.166 199.517 209.732 197.951C211.356 196.327 212.168 194.036 212.168 191.078H223.13C223.13 194.848 222.289 198.154 220.607 200.996C218.925 203.838 216.576 206.042 213.56 207.608C210.602 209.116 207.064 209.87 202.946 209.87ZM236.494 209V199.43H249.283V155.06H236.494V145.49H273.034V155.06H260.245V199.43H273.034V209H236.494ZM283.875 209L299.883 145.49H313.89L329.985 209H318.849L315.369 193.601H298.491L295.011 209H283.875ZM300.492 184.727H313.368L309.54 167.675C308.902 164.833 308.351 162.281 307.887 160.019C307.423 157.699 307.104 156.017 306.93 154.973C306.756 156.017 306.437 157.699 305.973 160.019C305.567 162.281 305.016 164.804 304.32 167.588L300.492 184.727ZM341.957 209V145.49H352.832V198.908H379.802V209H341.957ZM395.167 219.44V208.478C398.647 207.666 401.634 206.216 404.128 204.128C406.622 201.982 408.536 199.343 409.87 196.211C411.204 193.021 411.871 189.483 411.871 185.597V169.85C411.871 165.848 411.204 162.252 409.87 159.062C408.536 155.872 406.622 153.204 404.128 151.058C401.634 148.912 398.647 147.433 395.167 146.621V135.92C400.909 137.428 405.839 139.806 409.957 143.054C414.075 146.244 417.236 150.13 419.44 154.712C421.702 159.236 422.833 164.282 422.833 169.85V185.597C422.833 194.065 420.426 201.257 415.612 207.173C410.798 213.031 403.983 217.12 395.167 219.44ZM233.536 311V247.49H246.412L252.589 267.674C253.227 269.704 253.749 271.56 254.155 273.242C254.561 274.924 254.822 276.142 254.938 276.896C255.054 276.142 255.315 274.924 255.721 273.242C256.127 271.56 256.62 269.704 257.2 267.674L263.116 247.49H275.992V311H265.813V291.251C265.813 288.351 265.9 285.19 266.074 281.768C266.248 278.346 266.451 274.924 266.683 271.502C266.915 268.08 267.176 264.832 267.466 261.758C267.814 258.684 268.104 255.987 268.336 253.667L259.81 283.682H249.892L241.105 253.667C241.395 255.871 241.685 258.481 241.975 261.497C242.265 264.455 242.526 267.645 242.758 271.067C243.048 274.431 243.28 277.853 243.454 281.333C243.628 284.813 243.715 288.119 243.715 291.251V311H233.536ZM288.66 311V301.43H301.449V257.06H288.66V247.49H325.2V257.06H312.411V301.43H325.2V311H288.66ZM339.26 311V247.49H352.571L370.232 298.82C370.058 296.964 369.855 294.789 369.623 292.295C369.449 289.743 369.304 287.162 369.188 284.552C369.072 281.884 369.014 279.564 369.014 277.592V247.49H378.932V311H365.621L348.134 259.67C348.25 261.352 348.395 263.382 348.569 265.76C348.743 268.138 348.888 270.574 349.004 273.068C349.12 275.562 349.178 277.853 349.178 279.941V311H339.26ZM391.687 311V247.49H410.566C414.858 247.49 418.57 248.302 421.702 249.926C424.892 251.55 427.357 253.841 429.097 256.799C430.837 259.757 431.707 263.266 431.707 267.326V291.077C431.707 295.079 430.837 298.588 429.097 301.604C427.357 304.562 424.892 306.882 421.702 308.564C418.57 310.188 414.858 311 410.566 311H391.687ZM402.562 300.995H410.566C413.698 300.995 416.192 300.125 418.048 298.385C419.904 296.587 420.832 294.151 420.832 291.077V267.326C420.832 264.31 419.904 261.932 418.048 260.192C416.192 258.394 413.698 257.495 410.566 257.495H402.562V300.995Z" fill="white"/>
<rect x="448" y="447" width="133" height="33" transform="rotate(-90 448 447)" fill="white"/>
<rect x="315" y="447" width="133" height="33" fill="white"/>
<line x1="439.515" y1="471.515" x2="472.515" y2="438.515" stroke="white" stroke-width="24"/>
</svg>
