<svg width="500" height="500" viewBox="0 0 500 500" fill="none" xmlns="http://www.w3.org/2000/svg">
<rect width="500" height="500" fill="black"/>
<path d="M23.36 99L41.024 28.92H56.48L74.24 99H61.952L58.112 82.008H39.488L35.648 99H23.36ZM41.696 72.216H55.904L51.68 53.4C50.976 50.264 50.368 47.448 49.856 44.952C49.344 42.392 48.992 40.536 48.8 39.384C48.608 40.536 48.256 42.392 47.744 44.952C47.296 47.448 46.688 50.232 45.92 53.304L41.696 72.216ZM84.8585 99V28.92H107.035C111.707 28.92 115.739 29.784 119.131 31.512C122.587 33.24 125.275 35.672 127.195 38.808C129.115 41.88 130.075 45.528 130.075 49.752C130.075 54.36 128.891 58.424 126.523 61.944C124.219 65.464 121.083 67.96 117.115 69.432L131.035 99H117.595L105.403 71.16H96.8585V99H84.8585ZM96.8585 60.6H107.035C110.427 60.6 113.083 59.672 115.003 57.816C116.923 55.96 117.883 53.4 117.883 50.136C117.883 46.808 116.923 44.216 115.003 42.36C113.083 40.44 110.427 39.48 107.035 39.48H96.8585V60.6ZM157.877 99V40.056H139.541V28.92H188.309V40.056H169.973V99H157.877ZM201.328 99V88.44H215.44V39.48H201.328V28.92H241.648V39.48H227.536V88.44H241.648V99H201.328ZM27.68 212V141.92H71.264V153.056H39.488V171.776H68.768V182.912H39.68V212H27.68ZM86.2025 212V201.44H100.315V152.48H86.2025V141.92H126.523V152.48H112.411V201.44H126.523V212H86.2025ZM164.309 212.96C159.829 212.96 155.893 212.128 152.501 210.464C149.173 208.736 146.581 206.336 144.725 203.264C142.933 200.128 142.037 196.448 142.037 192.224V161.696C142.037 157.408 142.933 153.728 144.725 150.656C146.581 147.584 149.173 145.216 152.501 143.552C155.893 141.824 159.829 140.96 164.309 140.96C168.853 140.96 172.757 141.824 176.021 143.552C179.349 145.216 181.941 147.584 183.797 150.656C185.653 153.728 186.581 157.408 186.581 161.696H174.485C174.485 158.368 173.589 155.84 171.797 154.112C170.069 152.384 167.573 151.52 164.309 151.52C161.045 151.52 158.517 152.384 156.725 154.112C154.933 155.84 154.037 158.336 154.037 161.6V192.224C154.037 195.488 154.933 198.016 156.725 199.808C158.517 201.536 161.045 202.4 164.309 202.4C167.573 202.4 170.069 201.536 171.797 199.808C173.589 198.016 174.485 195.488 174.485 192.224H186.581C186.581 196.384 185.653 200.032 183.797 203.168C181.941 206.304 179.349 208.736 176.021 210.464C172.757 212.128 168.853 212.96 164.309 212.96ZM201.328 212V201.44H215.44V152.48H201.328V141.92H241.648V152.48H227.536V201.44H241.648V212H201.328ZM253.61 212L271.274 141.92H286.73L304.49 212H292.202L288.362 195.008H269.738L265.898 212H253.61ZM271.946 185.216H286.154L281.93 166.4C281.226 163.264 280.618 160.448 280.106 157.952C279.594 155.392 279.242 153.536 279.05 152.384C278.858 153.536 278.506 155.392 277.994 157.952C277.546 160.448 276.938 163.232 276.17 166.304L271.946 185.216ZM317.701 212V141.92H329.701V200.864H359.461V212H317.701ZM25.376 325V254.92H39.584L46.4 277.192C47.104 279.432 47.68 281.48 48.128 283.336C48.576 285.192 48.864 286.536 48.992 287.368C49.12 286.536 49.408 285.192 49.856 283.336C50.304 281.48 50.848 279.432 51.488 277.192L58.016 254.92H72.224V325H60.992V303.208C60.992 300.008 61.088 296.52 61.28 292.744C61.472 288.968 61.696 285.192 61.952 281.416C62.208 277.64 62.496 274.056 62.816 270.664C63.2 267.272 63.52 264.296 63.776 261.736L54.368 294.856H43.424L33.728 261.736C34.048 264.168 34.368 267.048 34.688 270.376C35.008 273.64 35.296 277.16 35.552 280.936C35.872 284.648 36.128 288.424 36.32 292.264C36.512 296.104 36.608 299.752 36.608 303.208V325H25.376ZM86.2025 325V314.44H100.315V265.48H86.2025V254.92H126.523V265.48H112.411V314.44H126.523V325H86.2025ZM142.037 325V254.92H156.725L176.213 311.56C176.021 309.512 175.797 307.112 175.541 304.36C175.349 301.544 175.189 298.696 175.061 295.816C174.933 292.872 174.869 290.312 174.869 288.136V254.92H185.813V325H171.125L151.829 268.36C151.957 270.216 152.117 272.456 152.309 275.08C152.501 277.704 152.661 280.392 152.789 283.144C152.917 285.896 152.981 288.424 152.981 290.728V325H142.037ZM199.888 325V254.92H220.72C225.456 254.92 229.552 255.816 233.008 257.608C236.528 259.4 239.248 261.928 241.167 265.192C243.088 268.456 244.048 272.328 244.048 276.808V303.016C244.048 307.432 243.088 311.304 241.167 314.632C239.248 317.896 236.528 320.456 233.008 322.312C229.552 324.104 225.456 325 220.72 325H199.888ZM211.888 313.96H220.72C224.176 313.96 226.928 313 228.976 311.08C231.024 309.096 232.048 306.408 232.048 303.016V276.808C232.048 273.48 231.024 270.856 228.976 268.936C226.928 266.952 224.176 265.96 220.72 265.96H211.888V313.96Z" fill="white"/>
<rect x="454" y="492" width="367" height="33" transform="rotate(-90 454 492)" fill="white"/>
<rect x="125" y="459" width="362" height="33" fill="white"/>
</svg>
